<svg xmlns="http://www.w3.org/2000/svg" viewBox="0 0 484.16 89.3"><defs><style>.cls-1{fill:#fff;}</style></defs><g id="レイヤー_2" data-name="レイヤー 2"><g id="レイヤー_1-2" data-name="レイヤー 1"><path class="cls-1" d="M16.76,0h14L14,89.3H0Z"/><path class="cls-1" d="M45.46,0H63.07l3.62,53.46h.25L77,0H89.48L72.72,89.3H58.3L53.69,24.11h-.25L41.21,89.3H28.7Z"/><path class="cls-1" d="M104.14,0h14L101.42,89.3h-14Z"/><path class="cls-1" d="M141.43,12.76H126.75L129.15,0h43.37l-2.39,12.76H155.46L141.09,89.3h-14Z"/><path class="cls-1" d="M183.5,0h14L180.77,89.3h-14Z"/><path class="cls-1" d="M223,0h19l-2.21,89.3h-14l.78-17.73-.05.26H210.59L204.75,89.3h-13Zm4.11,59.71,2-44.15h-.26l-14.4,44.15Z"/><path class="cls-1" d="M267.56,0h14L267.23,76.55h23.1l-2.4,12.75H250.81Z"/><path class="cls-1" d="M315.66,0h14L312.94,89.3h-14Z"/><path class="cls-1" d="M327.15,76.8l38-64H340.44L342.83,0h39.81l-2.35,12.5-38,64.05h26L365.88,89.3H324.8Z"/><path class="cls-1" d="M394.76,0H433l-2.39,12.76H406.4L402,36.36h19.26l-2.39,12.76H399.57l-5.14,27.43h24.24l-2.4,12.75H378Z"/><path class="cls-1" d="M445.28,0h21.43q10.46,0,14.64,5.61t2.14,16.46L475,67.23q-2,10.84-8.32,16.46T450,89.3H428.52Zm6.81,76.55a8.06,8.06,0,0,0,5.68-2c1.48-1.35,2.52-3.57,3.09-6.63l8.72-46.44q.85-4.59-.61-6.63c-1-1.36-2.61-2-4.91-2h-7.14L445,76.55Z"/></g></g></svg>