<svg xmlns="http://www.w3.org/2000/svg" viewBox="0 0 484.16 863.19"><defs><style>.cls-1{fill:#fff;}</style></defs><g id="レイヤー_2" data-name="レイヤー 2"><g id="レイヤー_1-2" data-name="レイヤー 1"><path class="cls-1" d="M16.76,387.19h14L14,476.49H0Z"/><path class="cls-1" d="M45.46,387.19H63.07l3.62,53.45h.25l10-53.45H89.48l-16.76,89.3H58.3L53.69,411.3h-.25L41.21,476.49H28.7Z"/><path class="cls-1" d="M104.14,387.19h14l-16.76,89.3h-14Z"/><path class="cls-1" d="M141.43,399.94H126.75l2.4-12.75h43.37l-2.39,12.75H155.46l-14.37,76.55h-14Z"/><path class="cls-1" d="M183.5,387.19h14l-16.76,89.3h-14Z"/><path class="cls-1" d="M223,387.19h19l-2.21,89.3h-14l.78-17.73-.05.25H210.59l-5.84,17.48h-13Zm4.11,59.7,2-44.14h-.26l-14.4,44.14Z"/><path class="cls-1" d="M267.56,387.19h14l-14.37,76.54h23.1l-2.4,12.76H250.81Z"/><path class="cls-1" d="M315.66,387.19h14l-16.75,89.3h-14Z"/><path class="cls-1" d="M327.15,464l38-64.05H340.44l2.39-12.75h39.81l-2.35,12.5-38,64h26l-2.39,12.76H324.8Z"/><path class="cls-1" d="M394.76,387.19H433l-2.39,12.75H406.4L402,423.55h19.26l-2.39,12.75H399.57l-5.14,27.43h24.24l-2.4,12.76H378Z"/><path class="cls-1" d="M445.28,387.19h21.43q10.46,0,14.64,5.61t2.14,16.46L475,454.42q-2,10.84-8.32,16.46T450,476.49H428.52Zm6.81,76.54a8.1,8.1,0,0,0,5.68-2q2.24-2,3.09-6.63l8.72-46.44q.85-4.59-.61-6.63c-1-1.36-2.61-2.05-4.91-2.05h-7.14l-12,63.79Z"/><polygon class="cls-1" points="229.56 863.19 213.9 863.19 293.64 482.46 309.31 482.46 229.56 863.19"/><polygon class="cls-1" points="327.88 380.72 312.22 380.72 391.96 0 407.63 0 327.88 380.72"/></g></g></svg>